# xmcd
#
# Track frame offsets: 
#        183
#        32263
#        70718
#        125150
#        185475
#        227838
#        277845
#
# Disc length: 3920 seconds
#
# Revision: 1
# Processed by: cddbd v1.5.2PL0 Copyright (c) Steve Scherf et al.
# Submitted via: ExactAudioCopyFreeDBPlugin 1.0
#
DISCID=580f4e07
DTITLE=Eric Burdon and Brian Auger Band - Access All Areas - Live CD 2
DYEAR=1993
DGENRE=Rock
TTITLE0=River Deep Mountain High
TTITLE1=Bring It On Home To Me
TTITLE2=No More Elmor James
TTITLE3=Band Intro For Eric - Tobacco Road
TTITLE4=Sky Pilot
TTITLE5=Rising Sun Guitar Intro - House Of The Rising Sun
TTITLE6=Sixteen Tons
EXTD=
EXTT0=
EXTT1=
EXTT2=
EXTT3=
EXTT4=
EXTT5=
EXTT6=
PLAYORDER=
